<svg width="108" height="21" viewBox="0 0 108 21" fill="none" xmlns="http://www.w3.org/2000/svg">
    <path d="M10.9941 20.3516H9.41211L0.904297 1.17383H5.7207L10.2207 12.6699L15.0547 1.17383H19.7129L10.9941 20.3516ZM38.9785 11.9316H25.5312C25.6133 13.4316 26.1289 14.5977 27.0781 15.4297C28.0273 16.2617 29.3047 16.6777 30.9102 16.6777C32.9141 16.6777 34.4375 16.1562 35.4805 15.1133L37.1855 18.4707C35.6387 19.7246 33.3301 20.3516 30.2598 20.3516C27.3887 20.3516 25.1152 19.5137 23.4395 17.8379C21.7754 16.1504 20.9434 13.8008 20.9434 10.7891C20.9434 7.82422 21.8574 5.42188 23.6855 3.58203C25.5254 1.74219 27.7285 0.822266 30.2949 0.822266C33.0254 0.822266 35.2168 1.63672 36.8691 3.26562C38.5215 4.89453 39.3477 6.96875 39.3477 9.48828C39.3477 10.0273 39.2246 10.8418 38.9785 11.9316ZM25.6895 8.62695H34.9355C34.6309 5.87305 33.1074 4.49609 30.3652 4.49609C27.8574 4.49609 26.2988 5.87305 25.6895 8.62695ZM53.7617 5.26953C52.9766 4.75391 52.1152 4.49609 51.1777 4.49609C50.1582 4.49609 49.25 4.95898 48.4531 5.88477C47.668 6.81055 47.2754 7.94141 47.2754 9.27734V20H42.8809V1.17383H47.2754V2.89648C48.5059 1.51367 50.1406 0.822266 52.1797 0.822266C53.6797 0.822266 54.8281 1.05078 55.625 1.50781L53.7617 5.26953ZM57.1191 18.7871L58.6836 15.2891C59.9961 16.332 61.4785 16.8535 63.1309 16.8535C64.8418 16.8535 65.6973 16.2441 65.6973 15.0254C65.6973 14.3105 65.4395 13.7246 64.9238 13.2676C64.4082 12.8105 63.4062 12.2715 61.918 11.6504C58.6719 10.3027 57.0488 8.41602 57.0488 5.99023C57.0488 4.36133 57.6699 3.0957 58.9121 2.19336C60.1543 1.2793 61.7422 0.822266 63.6758 0.822266C65.6328 0.822266 67.4727 1.26172 69.1953 2.14062L67.9297 5.55078C66.9688 4.73047 65.6328 4.32031 63.9219 4.32031C62.3867 4.32031 61.6191 4.92969 61.6191 6.14844C61.6191 6.62891 61.8711 7.0625 62.375 7.44922C62.8789 7.83594 63.957 8.35742 65.6094 9.01367C67.2617 9.6582 68.4512 10.4434 69.1777 11.3691C69.9043 12.2949 70.2676 13.4141 70.2676 14.7266C70.2676 16.4727 69.6172 17.8496 68.3164 18.8574C67.0273 19.8535 65.2695 20.3516 63.043 20.3516C61.7891 20.3516 60.7812 20.2461 60.0195 20.0352C59.2695 19.8359 58.3027 19.4199 57.1191 18.7871ZM85.9121 20.0176V18.4355C85.291 18.9629 84.4355 19.4141 83.3457 19.7891C82.2559 20.1641 81.2539 20.3516 80.3398 20.3516C75.9688 20.3516 73.7832 18.0312 73.7832 13.3906V1.17383H78.1777V13.0566C78.1777 15.4707 79.2617 16.6777 81.4297 16.6777C82.4258 16.6777 83.3516 16.4199 84.207 15.9043C85.0625 15.3887 85.6309 14.791 85.9121 14.1113V1.17383H90.3066V20.0176H85.9121ZM93.8926 18.7871L95.457 15.2891C96.7695 16.332 98.252 16.8535 99.9043 16.8535C101.615 16.8535 102.471 16.2441 102.471 15.0254C102.471 14.3105 102.213 13.7246 101.697 13.2676C101.182 12.8105 100.18 12.2715 98.6914 11.6504C95.4453 10.3027 93.8223 8.41602 93.8223 5.99023C93.8223 4.36133 94.4434 3.0957 95.6855 2.19336C96.9277 1.2793 98.5156 0.822266 100.449 0.822266C102.406 0.822266 104.246 1.26172 105.969 2.14062L104.703 5.55078C103.742 4.73047 102.406 4.32031 100.695 4.32031C99.1602 4.32031 98.3926 4.92969 98.3926 6.14844C98.3926 6.62891 98.6445 7.0625 99.1484 7.44922C99.6523 7.83594 100.73 8.35742 102.383 9.01367C104.035 9.6582 105.225 10.4434 105.951 11.3691C106.678 12.2949 107.041 13.4141 107.041 14.7266C107.041 16.4727 106.391 17.8496 105.09 18.8574C103.801 19.8535 102.043 20.3516 99.8164 20.3516C98.5625 20.3516 97.5547 20.2461 96.793 20.0352C96.043 19.8359 95.0762 19.4199 93.8926 18.7871Z" fill="white"/>
</svg>
